<svg width="164" height="20" viewBox="0 0 164 20" fill="none" xmlns="http://www.w3.org/2000/svg">
<path d="M0.184 19.5V1.74H6.352C10.072 1.74 13.024 3.036 13.024 7.116C13.024 11.076 10.072 12.804 6.352 12.804H3.736V19.5H0.184ZM3.736 9.996H6.016C8.32 9.996 9.568 9.012 9.568 7.116C9.568 5.22 8.32 4.572 6.016 4.572H3.736V9.996ZM9.832 19.5L5.704 11.892L8.176 9.66L13.792 19.5H9.832ZM16.2554 19.5V6.084H19.7834V19.5H16.2554ZM18.0074 3.9C16.7834 3.9 15.9674 3.132 15.9674 1.956C15.9674 0.803999 16.7834 0.0599985 18.0074 0.0599985C19.2314 0.0599985 20.0714 0.803999 20.0714 1.956C20.0714 3.132 19.2314 3.9 18.0074 3.9ZM23.5444 19.5V6.084H26.4004L26.6884 7.86H26.7604C27.9124 6.708 29.3044 5.748 31.1284 5.748C34.0084 5.748 35.2804 7.764 35.2804 11.124V19.5H31.7524V11.58C31.7524 9.468 31.1524 8.772 29.8564 8.772C28.7524 8.772 28.0564 9.3 27.0724 10.26V19.5H23.5444ZM39.0078 9.348L38.1918 7.788C39.7758 6.948 40.5438 5.94 40.5438 4.308L40.3758 2.124L41.6478 3.828C41.2638 4.164 40.8078 4.38 40.3038 4.38C39.2478 4.38 38.3838 3.684 38.3838 2.532C38.3838 1.308 39.1758 0.539999 40.3038 0.539999C41.8158 0.539999 42.6318 1.74 42.6318 3.78C42.6318 6.228 41.4318 8.1 39.0078 9.348ZM48.6188 19.836C46.8188 19.836 44.8268 19.068 43.5068 17.964L45.0908 15.732C46.3148 16.668 47.4428 17.22 48.6908 17.22C50.0348 17.22 50.6588 16.62 50.6588 15.78C50.6588 14.796 49.2428 14.316 47.8508 13.788C46.1468 13.116 44.2508 12.108 44.2508 9.828C44.2508 7.452 46.1708 5.748 49.2428 5.748C51.1868 5.748 52.7228 6.54 53.8268 7.404L52.2188 9.516C51.2828 8.844 50.3228 8.364 49.3388 8.364C48.1148 8.364 47.5628 8.892 47.5628 9.684C47.5628 10.644 48.7868 11.028 50.2268 11.532C52.0028 12.204 53.9468 13.116 53.9468 15.588C53.9468 17.964 52.0988 19.836 48.6188 19.836ZM62.3871 19.5V1.74H68.2191C72.1311 1.74 75.1551 3.108 75.1551 7.332C75.1551 11.388 72.1311 13.188 68.3151 13.188H65.9391V19.5H62.3871ZM65.9391 10.38H68.0751C70.5231 10.38 71.6991 9.348 71.6991 7.332C71.6991 5.244 70.4031 4.572 67.9551 4.572H65.9391V10.38ZM82.9729 19.836C79.5889 19.836 76.5169 17.244 76.5169 12.804C76.5169 8.34 79.5889 5.748 82.9729 5.748C86.3329 5.748 89.4049 8.34 89.4049 12.804C89.4049 17.244 86.3329 19.836 82.9729 19.836ZM82.9729 16.98C84.7969 16.98 85.8049 15.324 85.8049 12.804C85.8049 10.26 84.7969 8.628 82.9729 8.628C81.1249 8.628 80.1169 10.26 80.1169 12.804C80.1169 15.324 81.1249 16.98 82.9729 16.98ZM92.3804 19.5V6.084H95.2364L95.5244 8.46H95.5964C96.5564 6.684 98.0204 5.748 99.4124 5.748C100.132 5.748 100.564 5.844 100.972 6.036L100.372 9.06C99.8924 8.94 99.5324 8.844 98.9564 8.844C97.9244 8.844 96.6524 9.564 95.9084 11.508V19.5H92.3804ZM107.753 19.836C104.561 19.836 103.337 17.82 103.337 14.82V8.844H101.465V6.228L103.553 6.084L103.937 2.436H106.865V6.084H110.201V8.844H106.865V14.82C106.865 16.356 107.513 17.076 108.689 17.076C109.145 17.076 109.649 16.908 110.033 16.764L110.609 19.332C109.889 19.572 108.953 19.836 107.753 19.836ZM113.535 19.5V4.98C113.535 2.196 114.855 0.0359988 118.215 0.0359988C119.271 0.0359988 120.183 0.251999 120.783 0.467999L120.111 3.108C119.655 2.916 119.151 2.796 118.695 2.796C117.639 2.796 117.062 3.444 117.062 4.932V19.5H113.535ZM111.735 8.844V6.228L113.751 6.084H119.607V8.844H111.735ZM127.106 19.836C123.722 19.836 120.65 17.244 120.65 12.804C120.65 8.34 123.722 5.748 127.106 5.748C130.466 5.748 133.538 8.34 133.538 12.804C133.538 17.244 130.466 19.836 127.106 19.836ZM127.106 16.98C128.93 16.98 129.938 15.324 129.938 12.804C129.938 10.26 128.93 8.628 127.106 8.628C125.258 8.628 124.25 10.26 124.25 12.804C124.25 15.324 125.258 16.98 127.106 16.98ZM139.825 19.836C137.353 19.836 136.513 18.228 136.513 15.732V0.371999H140.041V15.876C140.041 16.716 140.401 16.98 140.737 16.98C140.857 16.98 140.953 16.98 141.193 16.932L141.625 19.548C141.217 19.692 140.665 19.836 139.825 19.836ZM144.084 19.5V6.084H147.612V19.5H144.084ZM145.836 3.9C144.612 3.9 143.796 3.132 143.796 1.956C143.796 0.803999 144.612 0.0599985 145.836 0.0599985C147.06 0.0599985 147.9 0.803999 147.9 1.956C147.9 3.132 147.06 3.9 145.836 3.9ZM156.989 19.836C153.605 19.836 150.533 17.244 150.533 12.804C150.533 8.34 153.605 5.748 156.989 5.748C160.349 5.748 163.421 8.34 163.421 12.804C163.421 17.244 160.349 19.836 156.989 19.836ZM156.989 16.98C158.813 16.98 159.821 15.324 159.821 12.804C159.821 10.26 158.813 8.628 156.989 8.628C155.141 8.628 154.133 10.26 154.133 12.804C154.133 15.324 155.141 16.98 156.989 16.98Z" fill="black"/>
</svg>
