<svg width="164" height="21" viewBox="0 0 164 21" fill="none" xmlns="http://www.w3.org/2000/svg">
<path d="M0.184 20H3.736V13.304H6.352C10.072 13.304 13.024 11.576 13.024 7.616C13.024 3.536 10.072 2.24 6.352 2.24H0.184V20ZM3.736 10.496V5.072H6.016C8.32 5.072 9.568 5.72 9.568 7.616C9.568 9.512 8.32 10.496 6.016 10.496H3.736ZM9.832 20H13.792L8.176 10.16L5.704 12.392L9.832 20ZM16.2554 20H19.7834V6.584H16.2554V20ZM18.0074 4.4C19.2314 4.4 20.0714 3.632 20.0714 2.456C20.0714 1.304 19.2314 0.559999 18.0074 0.559999C16.7834 0.559999 15.9674 1.304 15.9674 2.456C15.9674 3.632 16.7834 4.4 18.0074 4.4ZM23.5444 20H27.0724V10.76C28.0564 9.8 28.7524 9.272 29.8564 9.272C31.1524 9.272 31.7524 9.968 31.7524 12.08V20H35.2804V11.624C35.2804 8.264 34.0084 6.248 31.1284 6.248C29.3044 6.248 27.9124 7.208 26.7604 8.36H26.6884L26.4004 6.584H23.5444V20ZM39.0078 9.848C41.4318 8.6 42.6318 6.728 42.6318 4.28C42.6318 2.24 41.8158 1.04 40.3038 1.04C39.1758 1.04 38.3838 1.808 38.3838 3.032C38.3838 4.184 39.2478 4.88 40.3038 4.88C40.8078 4.88 41.2638 4.664 41.6478 4.328L40.3758 2.624L40.5438 4.808C40.5438 6.44 39.7758 7.448 38.1918 8.288L39.0078 9.848ZM48.6188 20.336C52.0988 20.336 53.9468 18.464 53.9468 16.088C53.9468 13.616 52.0028 12.704 50.2268 12.032C48.7868 11.528 47.5628 11.144 47.5628 10.184C47.5628 9.392 48.1148 8.864 49.3388 8.864C50.3228 8.864 51.2828 9.344 52.2188 10.016L53.8268 7.904C52.7228 7.04 51.1868 6.248 49.2428 6.248C46.1708 6.248 44.2508 7.952 44.2508 10.328C44.2508 12.608 46.1468 13.616 47.8508 14.288C49.2428 14.816 50.6588 15.296 50.6588 16.28C50.6588 17.12 50.0348 17.72 48.6908 17.72C47.4428 17.72 46.3148 17.168 45.0908 16.232L43.5068 18.464C44.8268 19.568 46.8188 20.336 48.6188 20.336ZM62.3871 20H65.9391V13.688H68.3151C72.1311 13.688 75.1551 11.888 75.1551 7.832C75.1551 3.608 72.1311 2.24 68.2191 2.24H62.3871V20ZM65.9391 10.88V5.072H67.9551C70.4031 5.072 71.6991 5.744 71.6991 7.832C71.6991 9.848 70.5231 10.88 68.0751 10.88H65.9391ZM82.9729 20.336C86.3329 20.336 89.4049 17.744 89.4049 13.304C89.4049 8.84 86.3329 6.248 82.9729 6.248C79.5889 6.248 76.5169 8.84 76.5169 13.304C76.5169 17.744 79.5889 20.336 82.9729 20.336ZM82.9729 17.48C81.1249 17.48 80.1169 15.824 80.1169 13.304C80.1169 10.76 81.1249 9.128 82.9729 9.128C84.7969 9.128 85.8049 10.76 85.8049 13.304C85.8049 15.824 84.7969 17.48 82.9729 17.48ZM92.3804 20H95.9084V12.008C96.6524 10.064 97.9244 9.344 98.9564 9.344C99.5324 9.344 99.8924 9.44 100.372 9.56L100.972 6.536C100.564 6.344 100.132 6.248 99.4124 6.248C98.0204 6.248 96.5564 7.184 95.5964 8.96H95.5244L95.2364 6.584H92.3804V20ZM107.753 20.336C108.953 20.336 109.889 20.072 110.609 19.832L110.033 17.264C109.649 17.408 109.145 17.576 108.689 17.576C107.513 17.576 106.865 16.856 106.865 15.32V9.344H110.201V6.584H106.865V2.936H103.937L103.553 6.584L101.465 6.728V9.344H103.337V15.32C103.337 18.32 104.561 20.336 107.753 20.336ZM113.535 20H117.062V5.432C117.062 3.944 117.639 3.296 118.695 3.296C119.151 3.296 119.655 3.416 120.111 3.608L120.783 0.967999C120.183 0.751999 119.271 0.535999 118.215 0.535999C114.855 0.535999 113.535 2.696 113.535 5.48V20ZM111.735 9.344H119.607V6.584H113.751L111.735 6.728V9.344ZM127.106 20.336C130.466 20.336 133.538 17.744 133.538 13.304C133.538 8.84 130.466 6.248 127.106 6.248C123.722 6.248 120.65 8.84 120.65 13.304C120.65 17.744 123.722 20.336 127.106 20.336ZM127.106 17.48C125.258 17.48 124.25 15.824 124.25 13.304C124.25 10.76 125.258 9.128 127.106 9.128C128.93 9.128 129.938 10.76 129.938 13.304C129.938 15.824 128.93 17.48 127.106 17.48ZM139.825 20.336C140.665 20.336 141.217 20.192 141.625 20.048L141.193 17.432C140.953 17.48 140.857 17.48 140.737 17.48C140.401 17.48 140.041 17.216 140.041 16.376V0.871999H136.513V16.232C136.513 18.728 137.353 20.336 139.825 20.336ZM144.084 20H147.612V6.584H144.084V20ZM145.836 4.4C147.06 4.4 147.9 3.632 147.9 2.456C147.9 1.304 147.06 0.559999 145.836 0.559999C144.612 0.559999 143.796 1.304 143.796 2.456C143.796 3.632 144.612 4.4 145.836 4.4ZM156.989 20.336C160.349 20.336 163.421 17.744 163.421 13.304C163.421 8.84 160.349 6.248 156.989 6.248C153.605 6.248 150.533 8.84 150.533 13.304C150.533 17.744 153.605 20.336 156.989 20.336ZM156.989 17.48C155.141 17.48 154.133 15.824 154.133 13.304C154.133 10.76 155.141 9.128 156.989 9.128C158.813 9.128 159.821 10.76 159.821 13.304C159.821 15.824 158.813 17.48 156.989 17.48Z" fill="#333333"/>
</svg>
